<svg width="169" height="30" viewBox="0 0 169 30" fill="none" xmlns="http://www.w3.org/2000/svg">
<path d="M21.546 2.324V7.53H14.478V29H7.98V7.53H0.912V2.324H21.546ZM45.7452 7.796V29H39.2472V26.112C38.5885 27.0493 37.6892 27.8093 36.5492 28.392C35.4345 28.9493 34.1932 29.228 32.8252 29.228C31.2038 29.228 29.7725 28.8733 28.5312 28.164C27.2898 27.4293 26.3272 26.378 25.6432 25.01C24.9592 23.642 24.6172 22.0333 24.6172 20.184V7.796H31.0772V19.31C31.0772 20.7287 31.4445 21.8307 32.1792 22.616C32.9138 23.4013 33.9018 23.794 35.1432 23.794C36.4098 23.794 37.4105 23.4013 38.1452 22.616C38.8798 21.8307 39.2472 20.7287 39.2472 19.31V7.796H45.7452ZM56.9106 10.798C57.5186 9.81 58.3926 9.012 59.5326 8.404C60.6726 7.796 61.9773 7.492 63.4466 7.492C65.1946 7.492 66.778 7.93533 68.1966 8.822C69.6153 9.70867 70.73 10.9753 71.5406 12.622C72.3766 14.2687 72.7946 16.1813 72.7946 18.36C72.7946 20.5387 72.3766 22.464 71.5406 24.136C70.73 25.7827 69.6153 27.062 68.1966 27.974C66.778 28.8607 65.1946 29.304 63.4466 29.304C61.952 29.304 60.6473 29.0127 59.5326 28.43C58.418 27.822 57.544 27.024 56.9106 26.036V29H50.4126V0.88H56.9106V10.798ZM66.1826 18.36C66.1826 16.7387 65.7266 15.472 64.8146 14.56C63.928 13.6227 62.826 13.154 61.5086 13.154C60.2166 13.154 59.1146 13.6227 58.2026 14.56C57.316 15.4973 56.8726 16.7767 56.8726 18.398C56.8726 20.0193 57.316 21.2987 58.2026 22.236C59.1146 23.1733 60.2166 23.642 61.5086 23.642C62.8006 23.642 63.9026 23.1733 64.8146 22.236C65.7266 21.2733 66.1826 19.9813 66.1826 18.36ZM96.1917 18.056C96.1917 18.664 96.1537 19.2973 96.0777 19.956H81.3717C81.473 21.2733 81.891 22.2867 82.6257 22.996C83.3857 23.68 84.3103 24.022 85.3997 24.022C87.021 24.022 88.1483 23.338 88.7817 21.97H95.6977C95.343 23.3633 94.697 24.6173 93.7597 25.732C92.8477 26.8467 91.695 27.7207 90.3017 28.354C88.9083 28.9873 87.3503 29.304 85.6277 29.304C83.5503 29.304 81.701 28.8607 80.0797 27.974C78.4583 27.0873 77.1917 25.8207 76.2797 24.174C75.3677 22.5273 74.9117 20.602 74.9117 18.398C74.9117 16.194 75.355 14.2687 76.2417 12.622C77.1537 10.9753 78.4203 9.70867 80.0417 8.822C81.663 7.93533 83.525 7.492 85.6277 7.492C87.6797 7.492 89.5037 7.92267 91.0997 8.784C92.6957 9.64533 93.937 10.874 94.8237 12.47C95.7357 14.066 96.1917 15.928 96.1917 18.056ZM89.5417 16.346C89.5417 15.2313 89.1617 14.3447 88.4017 13.686C87.6417 13.0273 86.6917 12.698 85.5517 12.698C84.4623 12.698 83.5377 13.0147 82.7777 13.648C82.043 14.2813 81.587 15.1807 81.4097 16.346H89.5417ZM128.002 10.912C128.002 12.4573 127.648 13.876 126.938 15.168C126.229 16.4347 125.14 17.4607 123.67 18.246C122.201 19.0313 120.377 19.424 118.198 19.424H114.17V29H107.672V2.324H118.198C120.326 2.324 122.125 2.69133 123.594 3.426C125.064 4.16066 126.166 5.174 126.9 6.466C127.635 7.758 128.002 9.24 128.002 10.912ZM117.704 14.256C118.946 14.256 119.87 13.9647 120.478 13.382C121.086 12.7993 121.39 11.976 121.39 10.912C121.39 9.848 121.086 9.02467 120.478 8.442C119.87 7.85933 118.946 7.568 117.704 7.568H114.17V14.256H117.704ZM137.883 11.33C138.643 10.1647 139.593 9.25267 140.733 8.594C141.873 7.91 143.14 7.568 144.533 7.568V14.446H142.747C141.126 14.446 139.91 14.8007 139.099 15.51C138.289 16.194 137.883 17.41 137.883 19.158V29H131.385V7.796H137.883V11.33ZM157.291 29.304C155.214 29.304 153.339 28.8607 151.667 27.974C150.021 27.0873 148.716 25.8207 147.753 24.174C146.816 22.5273 146.347 20.602 146.347 18.398C146.347 16.2193 146.829 14.3067 147.791 12.66C148.754 10.988 150.071 9.70867 151.743 8.822C153.415 7.93533 155.29 7.492 157.367 7.492C159.445 7.492 161.319 7.93533 162.991 8.822C164.663 9.70867 165.981 10.988 166.943 12.66C167.906 14.3067 168.387 16.2193 168.387 18.398C168.387 20.5767 167.893 22.502 166.905 24.174C165.943 25.8207 164.613 27.0873 162.915 27.974C161.243 28.8607 159.369 29.304 157.291 29.304ZM157.291 23.68C158.533 23.68 159.584 23.224 160.445 22.312C161.332 21.4 161.775 20.0953 161.775 18.398C161.775 16.7007 161.345 15.396 160.483 14.484C159.647 13.572 158.609 13.116 157.367 13.116C156.101 13.116 155.049 13.572 154.213 14.484C153.377 15.3707 152.959 16.6753 152.959 18.398C152.959 20.0953 153.365 21.4 154.175 22.312C155.011 23.224 156.05 23.68 157.291 23.68Z" fill="#0F247A"/>
</svg>
